<svg width="1440" height="739" viewBox="0 0 1440 739" fill="none" xmlns="http://www.w3.org/2000/svg">
<rect y="1" width="1440" height="738" fill="#450695"/>
<g opacity="0.21" clip-path="url(#clip0_3128_13)">
<path d="M-0.875 0.111328H1439.87" stroke="white" stroke-opacity="0.22" stroke-miterlimit="10"/>
<path d="M-0.875 49.7686H1439.87" stroke="white" stroke-opacity="0.22" stroke-miterlimit="10"/>
<path d="M-0.875 99.4033H1439.87" stroke="white" stroke-opacity="0.22" stroke-miterlimit="10"/>
<path d="M-0.875 149.062H1439.87" stroke="white" stroke-opacity="0.22" stroke-miterlimit="10"/>
<path d="M-0.875 198.696H1439.87" stroke="white" stroke-opacity="0.22" stroke-miterlimit="10"/>
<path d="M-0.875 248.354H1439.87" stroke="white" stroke-opacity="0.22" stroke-miterlimit="10"/>
<path d="M-0.875 298.012H1439.87" stroke="white" stroke-opacity="0.22" stroke-miterlimit="10"/>
<path d="M-0.875 347.647H1439.87" stroke="white" stroke-opacity="0.22" stroke-miterlimit="10"/>
<path d="M-0.875 397.304H1439.87" stroke="white" stroke-opacity="0.22" stroke-miterlimit="10"/>
<path d="M-0.875 446.939H1439.87" stroke="white" stroke-opacity="0.22" stroke-miterlimit="10"/>
<path d="M-0.875 496.598H1439.87" stroke="white" stroke-opacity="0.22" stroke-miterlimit="10"/>
<path d="M-0.875 546.233H1439.87" stroke="white" stroke-opacity="0.22" stroke-miterlimit="10"/>
<path d="M-0.875 595.891H1439.87" stroke="white" stroke-opacity="0.22" stroke-miterlimit="10"/>
<path d="M-0.875 639.573H1439.87" stroke="white" stroke-opacity="0.22" stroke-miterlimit="10"/>
<path d="M-0.875 689.231H1439.87" stroke="white" stroke-opacity="0.22" stroke-miterlimit="10"/>
<path d="M-0.875 738.889H1439.87" stroke="white" stroke-opacity="0.22" stroke-miterlimit="10"/>
<path d="M688.586 0.111328V738.889" stroke="white" stroke-opacity="0.22" stroke-miterlimit="10"/>
<path d="M631.117 0.111328V738.889" stroke="white" stroke-opacity="0.22" stroke-miterlimit="10"/>
<path d="M573.68 0.111328V738.889" stroke="white" stroke-opacity="0.22" stroke-miterlimit="10"/>
<path d="M516.211 0.111328V738.889" stroke="white" stroke-opacity="0.22" stroke-miterlimit="10"/>
<path d="M458.773 0.111328V738.889" stroke="white" stroke-opacity="0.22" stroke-miterlimit="10"/>
<path d="M401.312 0.111328V738.889" stroke="white" stroke-opacity="0.22" stroke-miterlimit="10"/>
<path d="M343.867 0.111328V738.889" stroke="white" stroke-opacity="0.22" stroke-miterlimit="10"/>
<path d="M286.406 0.111328V738.889" stroke="white" stroke-opacity="0.22" stroke-miterlimit="10"/>
<path d="M228.938 0.111328V738.889" stroke="white" stroke-opacity="0.22" stroke-miterlimit="10"/>
<path d="M171.5 0.111328V738.889" stroke="white" stroke-opacity="0.22" stroke-miterlimit="10"/>
<path d="M114.031 0.111328V738.889" stroke="white" stroke-opacity="0.22" stroke-miterlimit="10"/>
<path d="M56.5938 0.111328V738.889" stroke="white" stroke-opacity="0.22" stroke-miterlimit="10"/>
<path d="M1439.88 0.111328V738.889" stroke="white" stroke-opacity="0.22" stroke-miterlimit="10"/>
<path d="M1382.41 0.111328V738.889" stroke="white" stroke-opacity="0.22" stroke-miterlimit="10"/>
<path d="M1324.97 0.111328V738.889" stroke="white" stroke-opacity="0.22" stroke-miterlimit="10"/>
<path d="M1267.5 0.111328V738.889" stroke="white" stroke-opacity="0.22" stroke-miterlimit="10"/>
<path d="M1210.03 0.111328V738.889" stroke="white" stroke-opacity="0.22" stroke-miterlimit="10"/>
<path d="M1152.59 0.111328V738.889" stroke="white" stroke-opacity="0.22" stroke-miterlimit="10"/>
<path d="M1095.13 0.111328V738.889" stroke="white" stroke-opacity="0.22" stroke-miterlimit="10"/>
<path d="M1037.69 0.111328V738.889" stroke="white" stroke-opacity="0.22" stroke-miterlimit="10"/>
<path d="M980.227 0.111328V738.889" stroke="white" stroke-opacity="0.22" stroke-miterlimit="10"/>
<path d="M922.789 0.111328V738.889" stroke="white" stroke-opacity="0.22" stroke-miterlimit="10"/>
<path d="M865.32 0.111328V738.889" stroke="white" stroke-opacity="0.22" stroke-miterlimit="10"/>
<path d="M807.859 0.111328V738.889" stroke="white" stroke-opacity="0.22" stroke-miterlimit="10"/>
<path d="M750.414 0.111328V738.889" stroke="white" stroke-opacity="0.22" stroke-miterlimit="10"/>
</g>
<g clip-path="url(#clip1_3128_13)">
<path d="M1443.87 405.831C1374.34 379.231 1306.57 347.936 1241.16 312.277C1302.71 324.92 1364.26 337.48 1425.81 350.123C1413.66 334.651 1401.52 319.095 1389.37 303.623C1447.71 323.502 1506.09 343.342 1564.47 363.266" stroke="#FFC248" stroke-width="16" stroke-miterlimit="10" stroke-linecap="round" stroke-linejoin="round"/>
</g>
<g clip-path="url(#clip2_3128_13)">
<path d="M164.246 218.032C103.202 304.387 42.173 390.836 -18.8711 477.191C-6.82815 422.715 5.2148 368.239 17.1625 313.779C-37.4545 359.789 -92.0314 405.743 -146.648 451.753C-143.281 406.913 -139.954 362.128 -136.587 317.288C-203.664 400.109 -283.127 472.932 -371.369 532.645" stroke="#4BC7CC" stroke-width="16" stroke-miterlimit="10" stroke-linecap="round" stroke-linejoin="round"/>
</g>
<defs>
<clipPath id="clip0_3128_13">
<rect width="1441" height="739" fill="white" transform="translate(-1)"/>
</clipPath>
<clipPath id="clip1_3128_13">
<rect width="230.926" height="271.29" fill="white" transform="translate(1221 313) rotate(-41.4042)"/>
</clipPath>
<clipPath id="clip2_3128_13">
<rect width="290.836" height="598.75" fill="white" transform="translate(-142.586 704.432) rotate(-144.041)"/>
</clipPath>
</defs>
</svg>
