<svg width="1440" height="872" viewBox="0 0 1440 872" fill="none" xmlns="http://www.w3.org/2000/svg">
<rect width="1440" height="872" fill="#4E00AE"/>
<g clip-path="url(#clip0_3127_12)">
<path d="M1212.44 631.2C1261 582.837 1309.55 534.412 1358.11 486.049C1344.38 519.495 1330.64 552.941 1316.97 586.388C1356.95 563.072 1396.9 539.787 1436.87 516.47C1429.75 544.727 1422.66 572.953 1415.53 601.209C1467.55 555.772 1526.36 518.093 1589.33 489.758" stroke="#FFC248" stroke-width="16" stroke-miterlimit="10" stroke-linecap="round" stroke-linejoin="round"/>
</g>
<path d="M165.555 368.527C96.7879 414.526 26.1541 457.747 -46.1074 498.068C-17.4087 462.61 11.2901 427.152 39.9649 391.694C6.11999 410.765 -27.7249 429.812 -61.5698 448.882C-60.4927 446.822 -59.4156 444.737 -58.3385 442.677C-85.0745 454.992 -110.47 470.157 -133.999 487.862" stroke="#FF487D" stroke-width="16" stroke-miterlimit="10" stroke-linecap="round" stroke-linejoin="round"/>
<defs>
<clipPath id="clip0_3127_12">
<rect width="214.184" height="417.014" fill="white" transform="translate(1460.67 335.781) rotate(45.8171)"/>
</clipPath>
</defs>
</svg>
