<svg width="1440" height="831" viewBox="0 0 1440 831" fill="none" xmlns="http://www.w3.org/2000/svg">
<g clip-path="url(#clip0_3111_4)">
<path d="M1640.83 202.047C1551.35 316.257 1461.89 430.592 1372.41 544.801C1390.07 472.754 1407.72 400.706 1425.23 328.678C1345.17 389.529 1265.17 450.307 1185.12 511.158C1190.05 451.854 1194.93 392.623 1199.86 333.319C1101.54 442.855 985.065 539.169 855.72 618.144" stroke="#FF487D" stroke-width="16" stroke-miterlimit="10" stroke-linecap="round" stroke-linejoin="round"/>
</g>
<path d="M223.555 510.69C154.788 552.194 84.1541 591.191 11.8926 627.573C40.5913 595.58 69.2901 563.587 97.9649 531.593C64.12 548.801 30.2751 565.986 -3.56978 583.193C-2.49268 581.334 -1.41558 579.453 -0.338475 577.594C-27.0745 588.705 -52.4701 602.389 -75.9988 618.364" stroke="#FF487D" stroke-width="16" stroke-miterlimit="10" stroke-linecap="round" stroke-linejoin="round"/>
<defs>
<clipPath id="clip0_3111_4">
<rect width="371.973" height="794.87" fill="white" transform="matrix(-0.836698 -0.547665 0.626601 -0.77934 1157.23 823.191)"/>
</clipPath>
</defs>
</svg>
