<svg width="1440" height="2851" viewBox="0 0 1440 2851" fill="none" xmlns="http://www.w3.org/2000/svg">
<rect x="-3" width="1440" height="2851" fill="#4E00AE"/>
<g clip-path="url(#clip0_3105_10)">
<path d="M-87.2552 2686.02C-12.6821 2584.2 61.9819 2482.29 136.555 2380.46C99.3592 2489.82 62.0726 2599.08 24.8767 2708.44C174.477 2482.92 371.433 2289.08 599.145 2143.06" stroke="#E5E5E5" stroke-width="16" stroke-miterlimit="10" stroke-linecap="round" stroke-linejoin="round"/>
</g>
<g clip-path="url(#clip1_3105_10)">
<path d="M1045.43 1703.64C1121.85 1690.85 1198.32 1678 1274.74 1665.21C1240.18 1687.04 1205.62 1708.86 1171.12 1730.72C1223.24 1735.39 1275.3 1740.06 1327.42 1744.73C1302.35 1766.09 1277.33 1787.45 1252.26 1808.81C1329.95 1800.98 1408.84 1804.74 1485.43 1819.81" stroke="#FFC248" stroke-width="16" stroke-miterlimit="10" stroke-linecap="round" stroke-linejoin="round"/>
</g>
<g clip-path="url(#clip2_3105_10)">
<path d="M-53.3471 2029.91C-54.1872 1961.38 -55.0714 1892.81 -55.9115 1824.28C-41.498 1857.44 -27.0844 1890.6 -12.6267 1923.71C-1.48497 1878.79 9.65677 1833.92 20.7985 1789C36.0963 1813.8 51.3941 1838.56 66.6919 1863.36C70.3616 1794.39 84.333 1725.95 107.899 1661.05" stroke="#FFC248" stroke-width="16" stroke-miterlimit="10" stroke-linecap="round" stroke-linejoin="round"/>
</g>
<g clip-path="url(#clip3_3105_10)">
<path d="M386.83 856.93C297.351 983.508 207.894 1110.23 118.416 1236.81C136.068 1156.95 153.721 1077.1 171.234 997.275C91.1761 1064.72 11.177 1132.08 -68.8809 1199.52C-63.9453 1133.79 -59.0684 1068.15 -54.1328 1002.42C-152.455 1123.82 -268.933 1230.56 -398.277 1318.09" stroke="#4BC7CC" stroke-width="16" stroke-miterlimit="10" stroke-linecap="round" stroke-linejoin="round"/>
</g>
<g clip-path="url(#clip4_3105_10)">
<path d="M736.09 1170.05C687.624 1181.62 639.133 1193.23 590.666 1204.81C611.874 1189.27 633.081 1173.74 654.251 1158.18C620.608 1157.48 586.997 1156.76 553.355 1156.06C568.495 1141.24 583.603 1126.42 598.743 1111.6C549.24 1120.04 498.463 1121.1 448.658 1114.79" stroke="#4BC7CC" stroke-width="16" stroke-miterlimit="10" stroke-linecap="round" stroke-linejoin="round"/>
</g>
<path d="M1903.11 673.154C1813.63 799.732 1724.17 926.451 1634.69 1053.03C1652.35 973.179 1670 893.328 1687.51 813.499C1607.45 880.941 1527.45 948.301 1447.4 1015.74C1452.33 950.016 1457.21 884.37 1462.14 818.643C1363.82 940.042 1247.34 1046.79 1118 1134.31" stroke="#4BC7CC" stroke-width="16" stroke-miterlimit="10" stroke-linecap="round" stroke-linejoin="round"/>
<path d="M1478.99 319.77C1378.45 387.238 1275.17 450.63 1169.51 509.77C1211.47 457.763 1253.43 405.756 1295.36 353.75C1245.87 381.721 1196.39 409.657 1146.9 437.628C1148.47 434.606 1150.05 431.549 1151.62 428.527C1112.53 446.588 1075.4 468.832 1040.99 494.8" stroke="#FF487D" stroke-width="16" stroke-miterlimit="10" stroke-linecap="round" stroke-linejoin="round"/>
<g clip-path="url(#clip5_3105_10)">
<path d="M-16.1316 565.601C-85.6636 539.001 -153.438 507.706 -218.849 472.047C-157.299 484.69 -95.7429 497.25 -34.1925 509.893C-46.3411 494.421 -58.4844 478.865 -70.633 463.393C-12.2952 483.272 46.0869 503.112 104.464 523.036" stroke="#FF487D" stroke-width="16" stroke-miterlimit="10" stroke-linecap="round" stroke-linejoin="round"/>
</g>
<g clip-path="url(#clip6_3105_10)">
<path d="M885.876 300.601C816.344 274.001 748.57 242.707 683.159 207.048C744.709 219.691 806.265 232.25 867.815 244.893C855.667 229.421 843.523 213.866 831.375 198.394C889.713 218.273 948.095 238.113 1006.47 258.036" stroke="#FF487D" stroke-width="16" stroke-miterlimit="10" stroke-linecap="round" stroke-linejoin="round"/>
</g>
<g clip-path="url(#clip7_3105_10)">
<path d="M1487.98 2746.41C1392.33 2621.45 1309.48 2486.75 1241.09 2345C1275.5 2372.13 1309.97 2399.3 1344.35 2426.49C1323.31 2356.36 1302.28 2286.22 1281.21 2216.15C1338.26 2219.32 1396.08 2206.29 1446.28 2179.06" stroke="#E5E5E5" stroke-width="16" stroke-miterlimit="10" stroke-linecap="round" stroke-linejoin="round"/>
</g>
<defs>
<clipPath id="clip0_3105_10">
<rect width="704" height="628" fill="white" transform="translate(-31.0052 2124)"/>
</clipPath>
<clipPath id="clip1_3105_10">
<rect width="192" height="424" fill="white" transform="translate(1460 1633) rotate(81.201)"/>
</clipPath>
<clipPath id="clip2_3105_10">
<rect width="181" height="387" fill="white" transform="translate(-59.0052 1646)"/>
</clipPath>
<clipPath id="clip3_3105_10">
<rect width="384.5" height="848.2" fill="white" transform="translate(-96.7709 1545.35) rotate(-144.041)"/>
</clipPath>
<clipPath id="clip4_3105_10">
<rect width="135.745" height="296.396" fill="white" transform="translate(475.909 1245.49) rotate(-102.729)"/>
</clipPath>
<clipPath id="clip5_3105_10">
<rect width="228.684" height="271.366" fill="white" transform="translate(-228.005 471.472) rotate(-41.4042)"/>
</clipPath>
<clipPath id="clip6_3105_10">
<rect width="233.323" height="280.68" fill="white" transform="translate(654.995 202.312) rotate(-41.4042)"/>
</clipPath>
<clipPath id="clip7_3105_10">
<rect width="482.452" height="472.205" fill="white" transform="translate(1077 2521.33) rotate(-60.8459)"/>
</clipPath>
</defs>
</svg>
