<svg width="1440" height="1181" viewBox="0 0 1440 1181" fill="none" xmlns="http://www.w3.org/2000/svg">
<rect width="1440" height="1181" fill="#4E00AE"/>
<path d="M1228.45 725.173C1296.33 677.883 1366.14 633.337 1437.62 591.659C1409.6 627.652 1381.58 663.646 1353.58 699.639C1387.05 679.933 1420.53 660.25 1454.01 640.544C1452.97 642.625 1451.94 644.729 1450.9 646.809C1477.4 633.992 1502.5 618.35 1525.69 600.204" stroke="#4BC7CC" stroke-width="16" stroke-miterlimit="10" stroke-linecap="round" stroke-linejoin="round"/>
<g clip-path="url(#clip0_3123_2)">
<path d="M-13.2 1080.2C-15.1 925.2 -17.1 770.1 -19 615.1C13.6 690.1 46.2 765.1 78.9 840C104.1 738.4 129.3 636.9 154.5 535.3C189.1 591.4 223.7 647.4 258.3 703.5C266.6 547.5 298.2 392.7 351.5 245.9" stroke="#FFC248" stroke-width="16" stroke-miterlimit="10" stroke-linecap="round" stroke-linejoin="round"/>
</g>
<defs>
<clipPath id="clip0_3123_2">
<rect width="393" height="858" fill="white" transform="translate(-26 229)"/>
</clipPath>
</defs>
</svg>
