<svg width="67" height="67" viewBox="0 0 67 67" fill="none" xmlns="http://www.w3.org/2000/svg">
<path d="M29 51V21.336L33.848 25.944H23.24V17.4H40.328V51H29Z" fill="white"/>
<path d="M33.5 67C51.9998 67 67 51.9998 67 33.5C67 15.0002 51.9998 6.31803e-06 33.5 4.70073e-06C15.0002 3.08343e-06 -3.08343e-06 15.0002 -4.70073e-06 33.5C-6.31803e-06 51.9998 15.0002 67 33.5 67ZM33.5 5.68304C48.8592 5.68304 61.317 18.1409 61.317 33.5C61.317 48.8592 48.8591 61.317 33.5 61.317C18.1408 61.317 5.68303 48.8591 5.68304 33.5C5.68304 18.1408 18.1408 5.68304 33.5 5.68304Z" fill="white"/>
</svg>
