<svg width="67" height="67" viewBox="0 0 67 67" fill="none" xmlns="http://www.w3.org/2000/svg">
<path d="M46.272 42.216V51H19.344V44.04L31.488 32.808C32.544 31.816 33.248 30.968 33.6 30.264C33.952 29.56 34.128 28.872 34.128 28.2C34.128 27.368 33.84 26.728 33.264 26.28C32.72 25.8 31.92 25.56 30.864 25.56C29.84 25.56 28.88 25.832 27.984 26.376C27.088 26.92 26.4 27.688 25.92 28.68L17.376 24.408C18.656 22.008 20.528 20.12 22.992 18.744C25.456 17.336 28.432 16.632 31.92 16.632C34.576 16.632 36.928 17.064 38.976 17.928C41.024 18.792 42.624 20.024 43.776 21.624C44.928 23.224 45.504 25.064 45.504 27.144C45.504 29 45.104 30.744 44.304 32.376C43.536 33.976 42.016 35.8 39.744 37.848L34.944 42.216H46.272Z" fill="white"/>
<path d="M33.5 67C51.9998 67 67 51.9998 67 33.5C67 15.0002 51.9998 6.31803e-06 33.5 4.70073e-06C15.0002 3.08343e-06 -3.08343e-06 15.0002 -4.70073e-06 33.5C-6.31803e-06 51.9998 15.0002 67 33.5 67ZM33.5 5.68304C48.8592 5.68304 61.317 18.1409 61.317 33.5C61.317 48.8592 48.8592 61.317 33.5 61.317C18.1408 61.317 5.68303 48.8591 5.68304 33.5C5.68304 18.1408 18.1409 5.68304 33.5 5.68304Z" fill="white"/>
</svg>
