<svg width="67" height="67" viewBox="0 0 67 67" fill="none" xmlns="http://www.w3.org/2000/svg">
<path d="M38.256 29.696C40.848 30.336 42.832 31.504 44.208 33.2C45.616 34.864 46.32 36.88 46.32 39.248C46.32 41.264 45.76 43.152 44.64 44.912C43.552 46.64 41.856 48.048 39.552 49.136C37.248 50.224 34.384 50.768 30.96 50.768C28.592 50.768 26.224 50.512 23.856 50C21.52 49.488 19.472 48.736 17.712 47.744L21.552 39.392C22.928 40.192 24.4 40.8 25.968 41.216C27.568 41.632 29.104 41.84 30.576 41.84C31.888 41.84 32.944 41.616 33.744 41.168C34.544 40.72 34.944 40.08 34.944 39.248C34.944 37.712 33.616 36.944 30.96 36.944H26.496V29.984L31.44 24.944H19.44V16.4H44.496V23.36L38.256 29.696Z" fill="white"/>
<path d="M33.5 67C51.9998 67 67 51.9998 67 33.5C67 15.0002 51.9998 6.31803e-06 33.5 4.70073e-06C15.0002 3.08343e-06 -3.08343e-06 15.0002 -4.70073e-06 33.5C-6.31803e-06 51.9998 15.0002 67 33.5 67ZM33.5 5.68304C48.8592 5.68304 61.317 18.1409 61.317 33.5C61.317 48.8592 48.8592 61.317 33.5 61.317C18.1408 61.317 5.68303 48.8591 5.68304 33.5C5.68304 18.1408 18.1409 5.68304 33.5 5.68304Z" fill="white"/>
</svg>
