<svg width="67" height="67" viewBox="0 0 67 67" fill="none" xmlns="http://www.w3.org/2000/svg">
<path d="M17.104 45.24V38.04L31.36 17.4H42.976L29.248 38.04L23.968 36.456H49.984V45.24H17.104ZM34.528 51V45.24L34.864 36.456V31.32H45.52V51H34.528Z" fill="white"/>
<path d="M33.5 67C51.9998 67 67 51.9998 67 33.5C67 15.0002 51.9998 7.27171e-06 33.5 5.65441e-06C15.0002 4.0371e-06 -2.22407e-07 15.0002 -1.83971e-06 33.5C-3.45701e-06 51.9998 15.0002 67 33.5 67ZM33.5 5.68304C48.8592 5.68304 61.317 18.1409 61.317 33.5C61.317 48.8592 48.8592 61.317 33.5 61.317C18.1408 61.317 5.68303 48.8591 5.68303 33.5C5.68304 18.1408 18.1409 5.68304 33.5 5.68304Z" fill="white"/>
</svg>
