<svg width="121" height="24" viewBox="0 0 121 24" fill="none" xmlns="http://www.w3.org/2000/svg">
<path d="M50.0398 14.2006C47.1592 14.2006 44.8251 11.8657 44.8251 8.98664C44.8251 6.10716 47.1588 3.77227 50.0398 3.77227C50.7571 3.77227 51.4362 3.92488 52.0569 4.18712L54.988 1.33485C54.6844 1.15345 54.3685 0.986641 54.0357 0.839552C52.7663 0.279981 51.3439 0 49.763 0C47.953 0 46.3271 0.382512 44.8866 1.14872C43.4449 1.91334 42.3147 2.97925 41.4913 4.34564C40.6679 5.71243 40.2578 7.25903 40.2578 8.98664C40.2578 10.7135 40.6679 12.2616 41.4913 13.6276C42.3147 14.9948 43.4449 16.0603 44.8866 16.8254C46.3271 17.5904 47.9526 17.9729 49.763 17.9729C51.3439 17.9729 52.7663 17.6929 54.0357 17.1333C55.3015 16.5738 56.3556 15.7673 57.1956 14.7137L54.253 12.0515C53.3038 13.352 51.7722 14.2006 50.0398 14.2006Z" fill="white"/>
<path d="M12.4442 0.271973H7.63011L0 17.5544H4.83383L10.0009 5.06203L18.2221 23.9999H23.153L12.4442 0.271973Z" fill="white"/>
<path d="M120.819 13.7762V17.5544H100.75V0.271973H114.306V4.05016H105.59V6.96394V10.6159V13.7766H120.819V13.7762Z" fill="white"/>
<path d="M25.1451 8.77558C26.2781 8.77558 27.1965 7.85715 27.1965 6.72422C27.1965 5.59128 26.2781 4.67285 25.1451 4.67285C24.0122 4.67285 23.0938 5.59128 23.0938 6.72422C23.0938 7.85715 24.0122 8.77558 25.1451 8.77558Z" fill="#FF487D"/>
<path d="M12.1521 15.5321C12.1521 16.6915 11.2116 17.6312 10.053 17.6312C8.89363 17.6312 7.95312 16.6915 7.95312 15.5321C7.95312 14.3727 8.89363 13.4326 10.053 13.4326C11.2116 13.4326 12.1521 14.3727 12.1521 15.5321Z" fill="#FF487D"/>
<path d="M85.1673 8.56676C85.1673 9.72415 84.2268 10.6639 83.0686 10.6639C81.9089 10.6639 80.9688 9.72415 80.9688 8.56676C80.9688 7.40661 81.9089 6.46729 83.0686 6.46729C84.2268 6.46768 85.1673 7.40661 85.1673 8.56676Z" fill="#FF487D"/>
<path d="M110.084 11.2712C111.243 11.2712 112.183 10.3312 112.183 9.17173C112.183 8.01223 111.243 7.07227 110.084 7.07227C108.924 7.07227 107.984 8.01223 107.984 9.17173C107.984 10.3312 108.924 11.2712 110.084 11.2712Z" fill="#FF487D"/>
<path d="M52.0575 8.92504C52.0575 10.084 51.1166 11.0245 49.9581 11.0245C48.7991 11.0245 47.8594 10.084 47.8594 8.92504C47.8594 7.76686 48.7991 6.82715 49.9581 6.82715C51.1162 6.82715 52.0575 7.76686 52.0575 8.92504Z" fill="#FF487D"/>
<path d="M96.9721 4.34591C96.1661 3.04577 95.03 2.04178 93.565 1.33393C92.0992 0.626486 90.4205 0.271973 88.5289 0.271973H74.9375V4.15229H85.2444V4.17319H88.3297C89.8128 4.17319 91.001 4.59237 91.8993 5.43232C92.7952 6.27187 93.2444 7.43242 93.2444 8.91357C93.2444 10.3935 92.7952 11.5541 91.8993 12.394C91.0014 13.2332 89.8128 13.6524 88.3297 13.6524H85.2444H80.355V17.5544H88.5293C90.4213 17.5544 92.1 17.2006 93.5654 16.492C95.0304 15.785 96.1665 14.781 96.9725 13.4796C97.7785 12.1795 98.1823 10.6566 98.1823 8.91357C98.1823 7.16939 97.7781 5.64684 96.9721 4.34591Z" fill="white"/>
<path d="M34.1294 12.1219C35.215 11.5951 36.0514 10.8663 36.635 9.93649C37.2195 9.00821 37.5121 7.91825 37.5121 6.667C37.5121 5.36646 37.1994 4.23589 36.5739 3.27173C35.9481 2.30953 35.0589 1.56896 33.907 1.05001C32.7543 0.531843 31.3982 0.271973 29.8342 0.271973H17.2891V4.11128H27.0246V4.1239H29.5377C29.7755 4.1239 29.9975 4.1373 30.2097 4.16215C30.8114 4.18068 31.3592 4.40624 31.7839 4.7714C31.7914 4.77811 31.8008 4.78324 31.8087 4.78955C31.8268 4.80532 31.8406 4.82267 31.858 4.83844C31.8951 4.87394 31.9337 4.90942 31.9688 4.94649C31.981 4.9599 31.9937 4.97291 32.0051 4.98711C32.4195 5.43981 32.6755 6.04 32.6755 6.7021C32.6755 8.10635 31.5362 9.24442 30.1304 9.24442H21.9324V17.5536H26.8203V12.9607H29.4876L34.1436 19.9192H39.3777L34.1294 12.1219Z" fill="white"/>
<path d="M16.3288 9.04488L12.4433 0.271973H12.006L10 5.06203L12.0809 10.093L16.3288 9.04488Z" fill="white"/>
<path d="M70.6009 0.271973H65.7864L55.875 22.7987H60.7088L68.1568 5.06203L73.3246 17.5544H78.2551L70.6009 0.271973Z" fill="white"/>
<path d="M68.2088 17.6316C69.3684 17.6316 70.3083 16.6916 70.3083 15.5321C70.3083 14.3726 69.3684 13.4326 68.2088 13.4326C67.0493 13.4326 66.1094 14.3726 66.1094 15.5321C66.1094 16.6916 67.0493 17.6316 68.2088 17.6316Z" fill="#FF487D"/>
<path d="M74.4858 9.04488L70.6004 0.271973H70.1631L68.1562 5.06203L70.238 10.093L74.4858 9.04488Z" fill="white"/>
<path d="M30.9615 9.09573L34.7148 11.7934C35.4199 11.364 35.9948 10.8308 36.4448 10.1983L36.4294 10.1541C35.496 3.69562 29.5391 4.12506 29.5391 4.12506C29.7769 4.12506 29.9989 4.13846 30.211 4.16331C30.8128 4.18184 31.3605 4.4074 31.7852 4.77256C31.7927 4.77927 31.8022 4.7844 31.8101 4.79071C31.8282 4.80648 31.842 4.82383 31.8594 4.8396C31.8964 4.8751 31.9351 4.91058 31.9702 4.94765C31.9824 4.96106 31.995 4.97407 32.0065 4.98827C32.4209 5.44097 32.6768 6.04116 32.6768 6.70326C32.6768 7.8153 31.9576 8.75107 30.9615 9.09573Z" fill="white"/>
<path d="M44.8206 8.98671C44.8206 6.83715 46.1227 4.99203 47.9801 4.19427L47.973 4.15918C47.973 4.15918 41.1883 4.88437 40.8516 12.3224C41.0266 12.774 41.2349 13.2105 41.4865 13.6277C41.8563 14.2417 42.2972 14.7855 42.7917 15.2784L47.3018 13.4215C45.8147 12.5023 44.8206 10.8622 44.8206 8.98671Z" fill="white"/>
<path d="M90.2969 13.3499C91.4136 13.1271 97.606 11.6818 98.0185 7.06685C97.9767 6.84405 97.9254 6.62637 97.8678 6.41225L93.9706 4.42871L90.9617 4.76784C91.3028 4.94924 91.6187 5.16731 91.9026 5.4327C92.7986 6.27226 93.2477 7.4328 93.2477 8.91395C93.2477 10.3939 92.7986 11.5545 91.9026 12.3944C91.444 12.8223 90.9081 13.1405 90.2969 13.3499Z" fill="white"/>
<path d="M100.75 4.02637V11.4266H105.59V10.6158V6.96342V4.05003L100.75 4.02637Z" fill="white"/>
</svg>
