<svg width="83" height="83" viewBox="0 0 83 83" fill="none" xmlns="http://www.w3.org/2000/svg">
<path d="M49.1 27.6C52.574 27.6 55.4 30.426 55.4 33.9C55.4 37.374 52.574 40.2 49.1 40.2H46.4V43.8H49.1C52.574 43.8 55.4 46.626 55.4 50.1C55.4 53.574 52.574 56.4 49.1 56.4C45.626 56.4 42.8 53.574 42.8 50.1V47.4H39.2V50.1C39.2 53.574 36.374 56.4 32.9 56.4C29.426 56.4 26.6 53.574 26.6 50.1C26.6 46.626 29.426 43.8 32.9 43.8H35.6V40.2H32.9C29.426 40.2 26.6 37.374 26.6 33.9C26.6 30.426 29.426 27.6 32.9 27.6C36.374 27.6 39.2 30.426 39.2 33.9V36.6H42.8V33.9C42.8 30.426 45.626 27.6 49.1 27.6ZM46.4 36.6H49.1C50.5886 36.6 51.8 35.3868 51.8 33.9C51.8 32.4096 50.5886 31.2 49.1 31.2C47.6114 31.2 46.4 32.4096 46.4 33.9V36.6ZM32.9 36.6H35.6V33.9C35.6 32.4096 34.3886 31.2 32.9 31.2C31.4114 31.2 30.2 32.4096 30.2 33.9C30.2 35.3868 31.4114 36.6 32.9 36.6ZM49.1 52.8C50.5886 52.8 51.8 51.5868 51.8 50.1C51.8 48.6096 50.5886 47.4 49.1 47.4H46.4V50.1C46.4 51.5868 47.6114 52.8 49.1 52.8ZM32.9 52.8C34.3886 52.8 35.6 51.5868 35.6 50.1V47.4H32.9C31.4114 47.4 30.2 48.6096 30.2 50.1C30.2 51.5868 31.4114 52.8 32.9 52.8ZM49.1 24C45.7574 24 42.7928 25.6668 41 28.2138C39.2072 25.6668 36.2426 24 32.9 24C27.4406 24 23 28.4424 23 33.9C23 37.2426 24.6668 40.2072 27.2138 42C24.6668 43.7928 23 46.7574 23 50.1C23 55.5576 27.4406 60 32.9 60C36.2426 60 39.2072 58.3332 41 55.7862C42.7928 58.3332 45.7574 60 49.1 60C54.5594 60 59 55.5576 59 50.1C59 46.7574 57.3332 43.7928 54.7862 42C57.3332 40.2072 59 37.2426 59 33.9C59 28.4424 54.5594 24 49.1 24ZM42.8 40.2H39.2V43.8H42.8V40.2Z" fill="#350272"/>
<circle cx="41.5" cy="41.5" r="37" stroke="#350272" stroke-width="9"/>
</svg>
