<svg width="83" height="83" viewBox="0 0 83 83" fill="none" xmlns="http://www.w3.org/2000/svg">
<path d="M46.7173 23.5995H46.7287H46.7173ZM46.7173 23.5995L41.0023 37.3982L52.4323 44.0629L35.2873 60.3959L41.0023 46.5972L29.5723 39.9279L46.7173 23.5995ZM46.7173 19C45.4326 19.0276 44.365 19.5036 43.5649 20.2672L26.4267 36.584C25.3797 37.5844 24.8608 39.0195 25.0323 40.4615C25.1968 41.9011 26.0312 43.1798 27.2771 43.9065L35.237 48.5543L31.0627 58.6296C30.2352 60.6327 30.9119 62.9509 32.6904 64.1859C33.4768 64.7286 34.3797 65 35.285 65C36.4234 65 37.555 64.5722 38.4282 63.7397L55.5733 47.4045C56.6203 46.4064 57.1392 44.9713 56.9678 43.5293C56.8009 42.0874 55.9665 40.8087 54.7229 40.0843L46.763 35.4434L50.8527 25.5704C51.1339 24.9725 51.2916 24.3033 51.2916 23.5995C51.2916 21.0652 49.2571 19.0092 46.7173 19V19Z" fill="#350272"/>
<circle cx="41.5" cy="41.5" r="37" stroke="#350272" stroke-width="9"/>
</svg>
