<svg width="83" height="83" viewBox="0 0 83 83" fill="none" xmlns="http://www.w3.org/2000/svg">
<path d="M54.7703 28.374L54.7826 28C54.7826 26.398 54.145 24.89 52.9864 23.758C51.8298 22.624 50.289 22 48.6522 22C47.0153 22 45.4746 22.624 44.318 23.758L38.4082 29.54C37.3252 28.594 35.9131 28 34.3478 28H32.3043C24.4186 28 18 34.28 18 42C18 48.612 22.373 54.168 28.2297 55.626L28.2174 56C28.2174 57.602 28.855 59.11 30.0136 60.242C31.1702 61.376 32.711 62 34.3478 62C35.9847 62 37.5254 61.376 38.682 60.242L44.5918 54.46C45.6748 55.406 47.0869 56 48.6522 56H50.6957C58.5814 56 65 49.72 65 42C65 35.388 60.627 29.832 54.7703 28.374ZM50.6957 52H48.6522C47.5221 52 46.6087 51.104 46.6087 50C46.6087 48.896 47.5221 48 48.6522 48H50.6957C54.0756 48 56.8261 45.308 56.8261 42C56.8261 38.692 54.5353 36 51.7174 36H47.4547L50.0969 38.586C50.8959 39.368 50.8959 40.632 50.0969 41.414C49.6984 41.804 49.1753 42 48.6522 42C48.129 42 47.6059 41.804 47.2074 41.414L39.6323 34L47.2074 26.586C47.6059 26.196 48.129 26 48.6522 26C49.1753 26 49.6984 26.196 50.0969 26.586C50.8959 27.368 50.8959 28.632 50.0969 29.414L47.4547 32H51.7174C56.7873 32 60.913 36.486 60.913 42C60.913 47.514 56.3295 52 50.6957 52ZM52.2262 38.058C53.6567 38.386 54.7826 40.058 54.7826 42C54.7826 44.206 52.9496 46 50.6957 46H48.6522C46.9009 46 45.4153 47.088 44.835 48.608L37.2373 41.172C36.4649 40.416 35.439 40 34.3478 40C33.2566 40 32.2308 40.416 31.4583 41.172C30.6859 41.928 30.2609 42.932 30.2609 44C30.2609 44.69 30.4387 45.354 30.7738 45.942C29.3433 45.614 28.2174 43.942 28.2174 42C28.2174 39.794 30.0504 38 32.3043 38H34.3478C36.0991 38 37.5847 36.912 38.165 35.392L45.7627 42.828C46.5351 43.584 47.561 44 48.6522 44C49.7434 44 50.7692 43.584 51.5417 42.828C52.3141 42.072 52.7391 41.068 52.7391 40C52.7391 39.31 52.5613 38.646 52.2262 38.058ZM36.3913 34C36.3913 35.104 35.4779 36 34.3478 36H32.3043C28.9244 36 26.1739 38.692 26.1739 42C26.1739 45.308 28.4647 48 31.2826 48H35.5453L32.9031 45.414C32.1041 44.632 32.1041 43.368 32.9031 42.586C33.3016 42.196 33.8247 42 34.3478 42C34.871 42 35.3941 42.196 35.7926 42.586L43.3677 50L35.7926 57.414C35.3941 57.804 34.871 58 34.3478 58C33.8247 58 33.3016 57.804 32.9031 57.414C32.1041 56.632 32.1041 55.368 32.9031 54.586L35.5453 52H31.2826C26.2127 52 22.087 47.514 22.087 42C22.087 36.486 26.6705 32 32.3043 32H34.3478C35.4779 32 36.3913 32.896 36.3913 34Z" fill="#350272"/>
<circle cx="41.5" cy="41.5" r="37" stroke="#350272" stroke-width="9"/>
</svg>
