<svg width="83" height="83" viewBox="0 0 83 83" fill="none" xmlns="http://www.w3.org/2000/svg">
<path d="M58.3554 37.8746C59.4068 36.7357 60 35.2914 60 33.7481C60 32.0955 59.3413 30.5398 58.1443 29.372C56.9494 28.2021 55.3577 27.5584 53.6667 27.5584C51.9757 27.5584 50.3839 28.2021 49.189 29.372C48.6971 29.8507 48.0363 30.1168 47.3333 30.1168C46.6303 30.1168 45.9696 29.8507 45.4777 29.3699C42.5939 26.5516 38.7538 25 34.6667 25C30.5796 25 26.7394 26.5516 23.8557 29.3699C22.6587 30.5398 22 32.0955 22 33.7481C22 35.2914 22.5932 36.7357 23.6446 37.8746C22.5932 39.0114 22 40.4577 22 42.001C22 43.5443 22.5932 44.9886 23.6446 46.1275C22.5932 47.2643 22 48.7107 22 50.254C22 51.9066 22.6587 53.4623 23.8557 54.6301C25.0506 55.7979 26.6423 56.4437 28.3333 56.4437C30.0243 56.4437 31.6161 55.7999 32.811 54.6301C33.305 54.1493 33.9616 53.8832 34.6646 53.8832C35.3676 53.8832 36.0283 54.1493 36.5223 54.6321C39.4082 57.4484 43.2462 59 47.3333 59C51.4226 59 55.2606 57.4484 58.1443 54.6301C59.3413 53.4602 60 51.9066 60 50.254C60 48.7107 59.4068 47.2664 58.3554 46.1275C59.4068 44.9886 60 43.5443 60 42.001C60 40.4577 59.4068 39.0114 58.3554 37.8746ZM55.1592 51.7127C53.0038 53.8192 50.1686 54.8735 47.3333 54.8735C44.5002 54.8735 41.665 53.8192 39.5074 51.7127C38.1711 50.4087 36.4189 49.7567 34.6667 49.7567C32.9123 49.7567 31.1601 50.4087 29.828 51.7127C29.4142 52.115 28.8738 52.3172 28.3333 52.3172C27.7929 52.3172 27.2524 52.115 26.8408 51.7127C26.0153 50.9059 26.0153 49.602 26.8408 48.7953C28.9962 46.6887 31.8314 45.6344 34.6646 45.6344C37.4998 45.6344 40.335 46.6887 42.4926 48.7953C43.8268 50.0992 45.5811 50.7491 47.3333 50.7491C49.0877 50.7491 50.8399 50.0992 52.1741 48.7953C52.5858 48.3929 53.1262 48.1907 53.6667 48.1907C54.2071 48.1907 54.7476 48.3929 55.1592 48.7953C55.9847 49.5999 55.9847 50.9059 55.1592 51.7127ZM26.8408 32.2894C28.9962 30.1808 31.8336 29.1265 34.6667 29.1265C37.5019 29.1265 40.335 30.1808 42.4926 32.2873C43.8268 33.5934 45.5811 34.2433 47.3333 34.2433C49.0877 34.2433 50.8399 33.5934 52.1741 32.2894C52.5858 31.885 53.1262 31.6849 53.6667 31.6849C54.2071 31.6849 54.7476 31.8871 55.1592 32.2894C55.9847 33.0961 55.9847 34.4001 55.1592 35.2068C53.0038 37.3134 50.1686 38.3677 47.3333 38.3677C44.5002 38.3677 41.665 37.3134 39.5074 35.2068C38.1711 33.9028 36.4189 33.2509 34.6667 33.2509C32.9123 33.2509 31.1601 33.9028 29.828 35.2068C29.4142 35.6091 28.8738 35.8113 28.3333 35.8113C27.7929 35.8113 27.2524 35.6091 26.8408 35.2068C26.0153 34.4001 26.0153 33.0941 26.8408 32.2894ZM55.1592 43.4597C53.0038 45.5663 50.1686 46.6206 47.3333 46.6206C44.5002 46.6206 41.665 45.5663 39.5074 43.4597C38.1711 42.1558 36.4189 41.5038 34.6667 41.5038C32.9123 41.5038 31.1601 42.1558 29.828 43.4597C29.4142 43.8621 28.8738 44.0643 28.3333 44.0643C27.7929 44.0643 27.2524 43.8621 26.8408 43.4597C26.0153 42.653 26.0153 41.3491 26.8408 40.5423C28.9962 38.4358 31.8314 37.3815 34.6646 37.3815C37.4998 37.3815 40.335 38.4358 42.4926 40.5423C43.8268 41.8463 45.5811 42.4962 47.3333 42.4962C49.0877 42.4962 50.8399 41.8463 52.1741 40.5423C52.5858 40.14 53.1262 39.9378 53.6667 39.9378C54.2071 39.9378 54.7476 40.14 55.1592 40.5423C55.9847 41.347 55.9847 42.653 55.1592 43.4597Z" fill="#350272"/>
<circle cx="41.5" cy="41.5" r="37" stroke="#350272" stroke-width="9"/>
</svg>
